<svg class="icon" viewBox="0 0 1024 1024" xmlns="http://www.w3.org/2000/svg" width="40" height="40"><path d="M1020.587 361.813c0-92.16-75.094-167.253-167.254-167.253h-266.24l23.894 95.573 228.693 51.2c20.48 3.414 37.547 23.894 37.547 44.374v245.76c0 20.48-17.067 40.96-37.547 44.373l-228.693 51.2-27.307 92.16h266.24c92.16 0 167.253-75.093 167.253-167.253 3.414 0 3.414-290.134 3.414-290.134zM187.733 672.427c-20.48-3.414-37.546-23.894-37.546-44.374v-245.76c0-20.48 17.066-40.96 37.546-44.373l228.694-51.2 23.893-95.573H174.08C81.92 191.147 6.827 266.24 6.827 358.4v290.133c0 92.16 75.093 167.254 167.253 167.254h266.24l-23.893-95.574c0 3.414-228.694-47.786-228.694-47.786zM402.773 460.8h218.454v88.747H402.773V460.8z" fill="#ff6b01"/></svg>